<svg width="16" height="16" viewBox="0 0 16 16" fill="none" xmlns="http://www.w3.org/2000/svg">
<g id="video-chat 1">
<g id="colored line">
<path id="Vector" d="M9 3H5C4.4 3 4 3.4 4 4V7C4 7.6 4.4 8 5 8H9C9.6 8 10 7.6 10 7V6.8L11.3 7.4C11.4 7.4 11.4 7.5 11.5 7.5C11.6 7.5 11.7 7.5 11.8 7.4C11.9 7.3 12 7.2 12 7V4C12 3.8 11.9 3.7 11.8 3.6C11.7 3.5 11.5 3.5 11.3 3.6L10 4.2V4C10 3.4 9.6 3 9 3ZM9 7.5V7H5V4H9V7V7.5ZM11 4.8V6.2L10 5.7V5.3L11 4.8Z" fill="white"/>
<path id="Vector_2" d="M14.5 0H1.5C0.7 0 0 0.7 0 1.5V9.5C0 10.3 0.7 11 1.5 11H2.5C2.8 11 3 10.8 3 10.5C3 10.2 2.8 10 2.5 10H1.5C1.2 10 1 9.8 1 9.5V1.5C1 1.2 1.2 1 1.5 1H14.5C14.8 1 15 1.2 15 1.5V9.5C15 9.8 14.8 10 14.5 10H9.2C9.1 10 9 10 8.9 10.1L5 13.4V10.5C5 10.2 4.8 10 4.5 10C4.2 10 4 10.2 4 10.5V14.5C4 14.7 4.1 14.9 4.3 15C4.4 15 4.4 15 4.5 15C4.6 15 4.7 15 4.8 14.9L9.4 11H14.5C15.3 11 16 10.3 16 9.5V1.5C16 0.7 15.3 0 14.5 0Z" fill="#1689FC"/>
</g>
</g>
</svg>
