<svg width="512" height="512" viewBox="0 0 512 512" fill="none" xmlns="http://www.w3.org/2000/svg">
<path d="M406 332C376.364 332 350.031 346.402 333.622 368.571L192.352 296.376C194.722 288.324 196 279.809 196 271C196 259.069 193.661 247.676 189.426 237.247L337.486 148.289C354.006 167.679 378.59 180 406 180C455.626 180 496 139.626 496 90C496 40.374 455.626 0 406 0C356.374 0 316 40.374 316 90C316 101.47 318.161 112.443 322.09 122.54L173.66 211.72C157.152 192.902 132.941 181 106 181C56.374 181 16 221.374 16 271C16 320.626 56.374 361 106 361C136.122 361 162.832 346.124 179.177 323.334L320.037 395.319C317.414 403.753 316 412.714 316 422C316 471.626 356.374 512 406 512C455.626 512 496 471.626 496 422C496 372.374 455.626 332 406 332ZM406 30C439.084 30 466 56.916 466 90C466 123.084 439.084 150 406 150C372.916 150 346 123.084 346 90C346 56.916 372.916 30 406 30ZM106 331C72.916 331 46 304.084 46 271C46 237.916 72.916 211 106 211C139.084 211 166 237.916 166 271C166 304.084 139.084 331 106 331ZM406 482C372.916 482 346 455.084 346 422C346 388.916 372.916 362 406 362C439.084 362 466 388.916 466 422C466 455.084 439.084 482 406 482Z" fill="white"/>
</svg>
