<svg xmlns="http://www.w3.org/2000/svg" enable-background="new 0 0 16 16" viewBox="0 0 16 16"><g id="line" display="none"><path fill="none" stroke="#000" stroke-linecap="round" stroke-linejoin="round" stroke-miterlimit="10" d="M9,7.5H5C4.7,7.5,4.5,7.3,4.5,7V4c0-0.3,0.2-0.5,0.5-0.5h4c0.3,0,0.5,0.2,0.5,0.5v3C9.5,7.3,9.3,7.5,9,7.5z"/><polyline fill="none" stroke="#000" stroke-linecap="round" stroke-linejoin="round" stroke-miterlimit="10" points="9.5 5 11.5 4 11.5 7 9.5 6"/><path fill="none" stroke="#000" stroke-linecap="round" stroke-linejoin="round" stroke-miterlimit="10" d="M4.5,10.5v4l4.7-4h5.3c0.6,0,1-0.4,1-1v-8c0-0.6-0.4-1-1-1h-13c-0.6,0-1,0.4-1,1v8c0,0.6,0.4,1,1,1h1"/></g><g id="line_expanded" display="none"><path d="M9,3H5C4.4,3,4,3.4,4,4v3c0,0.6,0.4,1,1,1h4c0.6,0,1-0.4,1-1V6.8l1.3,0.6c0.1,0,0.1,0.1,0.2,0.1c0.1,0,0.2,0,0.3-0.1
			C11.9,7.3,12,7.2,12,7V4c0-0.2-0.1-0.3-0.2-0.4s-0.3-0.1-0.5,0L10,4.2V4C10,3.4,9.6,3,9,3z M9,7.5V7H5V4h4v3h0L9,7.5z M11,4.8v1.4
			l-1-0.5V5.3L11,4.8z"/><path d="M14.5,0h-13C0.7,0,0,0.7,0,1.5v8C0,10.3,0.7,11,1.5,11h1C2.8,11,3,10.8,3,10.5S2.8,10,2.5,10h-1C1.2,10,1,9.8,1,9.5v-8
			C1,1.2,1.2,1,1.5,1h13C14.8,1,15,1.2,15,1.5v8c0,0.3-0.2,0.5-0.5,0.5H9.2c-0.1,0-0.2,0-0.3,0.1L5,13.4v-2.9C5,10.2,4.8,10,4.5,10
			S4,10.2,4,10.5v4c0,0.2,0.1,0.4,0.3,0.5c0.1,0,0.1,0,0.2,0c0.1,0,0.2,0,0.3-0.1L9.4,11h5.1c0.8,0,1.5-0.7,1.5-1.5v-8
			C16,0.7,15.3,0,14.5,0z"/></g><g id="filled_line" display="none"><path fill="#54a0ff" d="M13.5,2h-11c-1.1,0-2,0.9-2,2v5.5c0,0.6,0.4,1,1,1h3v4l4.7-4h5.3c0.6,0,1-0.4,1-1V4C15.5,2.9,14.6,2,13.5,2z"/><path fill="#f2f2f3" d="M9,7.5H5C4.7,7.5,4.5,7.3,4.5,7V4c0-0.3,0.2-0.5,0.5-0.5h4c0.3,0,0.5,0.2,0.5,0.5v3C9.5,7.3,9.3,7.5,9,7.5z"/><polyline fill="#f2f2f3" points="9.5 5 11.5 4 11.5 7 9.5 6"/><path fill="#3e3643" d="M9,3H5C4.4,3,4,3.4,4,4v3c0,0.6,0.4,1,1,1h4c0.6,0,1-0.4,1-1V6.8l1.3,0.6c0.1,0,0.1,0.1,0.2,0.1
			c0.1,0,0.2,0,0.3-0.1C11.9,7.3,12,7.2,12,7V4c0-0.2-0.1-0.3-0.2-0.4s-0.3-0.1-0.5,0L10,4.2V4C10,3.4,9.6,3,9,3z M5,7V4h4l0,3H5z
			 M11,4.8v1.4l-1-0.5V5.3L11,4.8z"/><path fill="#3e3643" d="M14.5,0h-13C0.7,0,0,0.7,0,1.5v8C0,10.3,0.7,11,1.5,11h1C2.8,11,3,10.8,3,10.5S2.8,10,2.5,10h-1
			C1.2,10,1,9.8,1,9.5v-8C1,1.2,1.2,1,1.5,1h13C14.8,1,15,1.2,15,1.5v8c0,0.3-0.2,0.5-0.5,0.5H9.2c-0.1,0-0.2,0-0.3,0.1L5,13.4v-2.9
			C5,10.2,4.8,10,4.5,10S4,10.2,4,10.5v4c0,0.2,0.1,0.4,0.3,0.5c0.1,0,0.1,0,0.2,0c0.1,0,0.2,0,0.3-0.1L9.4,11h5.1
			c0.8,0,1.5-0.7,1.5-1.5v-8C16,0.7,15.3,0,14.5,0z"/></g><g id="flat" display="none"><path fill="#4fc6f5" d="M4.5,15c-0.1,0-0.1,0-0.2,0C4.1,14.9,4,14.7,4,14.5V11H1.5C0.7,11,0,10.3,0,9.5v-8C0,0.7,0.7,0,1.5,0h13
				C15.3,0,16,0.7,16,1.5v8c0,0.8-0.7,1.5-1.5,1.5H9.4l-4.6,3.9C4.7,15,4.6,15,4.5,15z"/><path fill="#cfd3d4" d="M11.5,7.5c-0.1,0-0.2,0-0.2-0.1l-2-1C9,6.3,8.9,6,9.1,5.8c0.1-0.2,0.1-0.4,0-0.6C8.9,5,9,4.7,9.3,4.6l2-1
				c0.2-0.1,0.3-0.1,0.5,0S12,3.8,12,4v3c0,0.2-0.1,0.3-0.2,0.4C11.7,7.5,11.6,7.5,11.5,7.5z"/><path fill="#3bb3e3" d="M14.5,0h-2.1c1.2,0.7,2.1,2,2.1,3.5v4c0,1.5-0.9,2.8-2.1,3.5h2.1c0.8,0,1.5-0.7,1.5-1.5v-8
			C16,0.7,15.3,0,14.5,0z"/><path fill="#f0f0f0" d="M9,8H5C4.4,8,4,7.6,4,7V4c0-0.6,0.4-1,1-1h4c0.6,0,1,0.4,1,1v3C10,7.6,9.6,8,9,8z"/></g><g id="colored_line"><path fill="#3e5959" d="M9,3H5C4.4,3,4,3.4,4,4v3c0,0.6,0.4,1,1,1h4c0.6,0,1-0.4,1-1V6.8l1.3,0.6c0.1,0,0.1,0.1,0.2,0.1
			c0.1,0,0.2,0,0.3-0.1C11.9,7.3,12,7.2,12,7V4c0-0.2-0.1-0.3-0.2-0.4s-0.3-0.1-0.5,0L10,4.2V4C10,3.4,9.6,3,9,3z M9,7.5V7H5V4h4v3
			h0L9,7.5z M11,4.8v1.4l-1-0.5V5.3L11,4.8z"/><path fill="#1689fc" d="M14.5,0h-13C0.7,0,0,0.7,0,1.5v8C0,10.3,0.7,11,1.5,11h1C2.8,11,3,10.8,3,10.5S2.8,10,2.5,10h-1
			C1.2,10,1,9.8,1,9.5v-8C1,1.2,1.2,1,1.5,1h13C14.8,1,15,1.2,15,1.5v8c0,0.3-0.2,0.5-0.5,0.5H9.2c-0.1,0-0.2,0-0.3,0.1L5,13.4v-2.9
			C5,10.2,4.8,10,4.5,10S4,10.2,4,10.5v4c0,0.2,0.1,0.4,0.3,0.5c0.1,0,0.1,0,0.2,0c0.1,0,0.2,0,0.3-0.1L9.4,11h5.1
			c0.8,0,1.5-0.7,1.5-1.5v-8C16,0.7,15.3,0,14.5,0z"/></g><g id="duo_tone" display="none"><path fill="#00ecce" d="M14.5,0.5h-13c-0.6,0-1,0.4-1,1v8c0,0.6,0.4,1,1,1h3v4l4.9-4h5.1c0.6,0,1-0.4,1-1v-8
			C15.5,0.9,15.1,0.5,14.5,0.5z M11.5,7l-2-1v1c0,0.3-0.2,0.5-0.5,0.5H5C4.7,7.5,4.5,7.3,4.5,7V4c0-0.3,0.2-0.5,0.5-0.5h4
			c0.3,0,0.5,0.2,0.5,0.5v1l2-1V7z"/><path fill="#01a28e" d="M9,3H5C4.4,3,4,3.4,4,4v3c0,0.6,0.4,1,1,1h4c0.6,0,1-0.4,1-1V6.8l1.3,0.6c0.1,0,0.1,0.1,0.2,0.1
			c0.1,0,0.2,0,0.3-0.1C11.9,7.3,12,7.2,12,7V4c0-0.2-0.1-0.3-0.2-0.4s-0.3-0.1-0.5,0L10,4.2V4C10,3.4,9.6,3,9,3z M9,7.5V7H5V4h4v3
			h0L9,7.5z M11,4.8v1.4l-1-0.5V5.3L11,4.8z"/><path fill="#01a28e" d="M14.5,0h-13C0.7,0,0,0.7,0,1.5v8C0,10.3,0.7,11,1.5,11h1C2.8,11,3,10.8,3,10.5S2.8,10,2.5,10h-1
			C1.2,10,1,9.8,1,9.5v-8C1,1.2,1.2,1,1.5,1h13C14.8,1,15,1.2,15,1.5v8c0,0.3-0.2,0.5-0.5,0.5H9.2c-0.1,0-0.2,0-0.3,0.1L5,13.4v-2.9
			C5,10.2,4.8,10,4.5,10S4,10.2,4,10.5v4c0,0.2,0.1,0.4,0.3,0.5c0.1,0,0.1,0,0.2,0c0.1,0,0.2,0,0.3-0.1L9.4,11h5.1
			c0.8,0,1.5-0.7,1.5-1.5v-8C16,0.7,15.3,0,14.5,0z"/></g></svg>